<svg width="18" height="18" viewBox="0 0 18 18" fill="none" xmlns="http://www.w3.org/2000/svg">
<path d="M18 9.20455C18 8.56636 17.9416 7.95273 17.833 7.36364H9.18367V10.8491H14.1262C13.9091 11.97 13.2579 12.9191 12.2811 13.5573V15.8236H15.2616C16.9981 14.2527 18 11.9455 18 9.20455Z" fill="#4285F4"/>
<path d="M9.18367 18C11.6633 18 13.7421 17.1982 15.2616 15.8236L12.2811 13.5573C11.4629 14.0973 10.4193 14.4245 9.18367 14.4245C6.79592 14.4245 4.76716 12.8455 4.04082 10.7182H0.985158V13.0418C2.49629 15.9791 5.59369 18 9.18367 18Z" fill="#34A853"/>
<path d="M4.04082 10.71C3.85714 10.17 3.74861 9.59727 3.74861 9C3.74861 8.40273 3.85714 7.83 4.04082 7.29V4.96636H0.985158C0.358998 6.17727 0 7.54364 0 9C0 10.4564 0.358998 11.8227 0.985158 13.0336L3.36456 11.2173L4.04082 10.71Z" fill="#FBBC05"/>
<path d="M9.18367 3.58364C10.5362 3.58364 11.7384 4.04182 12.6985 4.92545L15.3284 2.34818C13.7338 0.891818 11.6633 0 9.18367 0C5.59369 0 2.49629 2.02091 0.985158 4.96636L4.04082 7.29C4.76716 5.16273 6.79592 3.58364 9.18367 3.58364Z" fill="#EA4335"/>
</svg>
